<svg width="35" height="35" viewBox="0 0 35 35" fill="none" xmlns="http://www.w3.org/2000/svg">
<path d="M30.625 11.6667V10.2083L26.25 13.125L21.875 10.2083V11.6667L25.8417 14.3208C25.9607 14.3992 26.1002 14.441 26.2427 14.441C26.3853 14.441 26.5247 14.3992 26.6438 14.3208L30.625 11.6667ZM32.0833 4.375H2.91667C1.3125 4.375 0 5.6875 0 7.29167V27.7083C0 29.3125 1.3125 30.625 2.91667 30.625H32.0833C33.6875 30.625 34.9854 29.3125 34.9854 27.7083L35 7.29167C35 5.6875 33.6875 4.375 32.0833 4.375ZM11.6667 8.75C14.0875 8.75 16.0417 10.7042 16.0417 13.125C16.0417 15.5458 14.0875 17.5 11.6667 17.5C9.24583 17.5 7.29167 15.5458 7.29167 13.125C7.29167 10.7042 9.24583 8.75 11.6667 8.75ZM20.4167 26.25H2.91667V24.7917C2.91667 21.875 8.75 20.2708 11.6667 20.2708C14.5833 20.2708 20.4167 21.875 20.4167 24.7917V26.25ZM31.3542 17.5H21.1458C20.7375 17.5 20.4167 17.1792 20.4167 16.7708V9.47917C20.4167 9.07083 20.7375 8.75 21.1458 8.75H31.3542C31.7625 8.75 32.0833 9.07083 32.0833 9.47917V16.7708C32.0833 17.1792 31.7625 17.5 31.3542 17.5Z" fill="white"/>
</svg>
